<svg width="325" height="89" viewBox="0 0 325 89" fill="none" xmlns="http://www.w3.org/2000/svg">
<path d="M20.4024 34.9282C19.2504 33.4882 18.6744 31.8562 18.6744 30.0322C18.6744 28.2082 19.1064 26.4322 19.9704 24.7042C20.9304 22.8802 22.2744 21.0562 24.0024 19.2322C25.8264 17.3122 28.1784 15.5362 31.0584 13.9042C34.0344 12.1762 37.3464 10.6882 40.9944 9.44021C48.5784 6.65621 58.0824 5.26421 69.5064 5.26421C72.0024 2.67221 74.6424 1.08821 77.4264 0.512207C77.5224 0.512207 77.5704 0.512207 77.5704 0.512207C78.1464 0.512207 78.4344 0.704206 78.4344 1.08821C78.2424 1.76021 77.5704 2.24021 76.4184 2.52821C75.3624 2.81621 74.0664 3.77621 72.5304 5.40821C81.7464 5.79221 89.3304 7.47221 95.2824 10.4482C101.33 13.4242 104.354 17.4082 104.354 22.4002C104.354 27.0082 101.81 31.3762 96.7224 35.5042C91.7304 39.6322 85.3464 42.9442 77.5704 45.4402C76.7064 53.0242 72.7224 58.4002 65.6184 61.5682C65.1384 61.7602 64.8504 61.6642 64.7544 61.2802C64.6584 60.8962 64.7544 60.6562 65.0424 60.5602C68.2104 59.1202 70.7544 57.1042 72.6744 54.5122C74.6904 51.8242 75.9384 48.9442 76.4184 45.8722C70.5624 47.6002 64.0344 48.7522 56.8344 49.3282L55.5384 53.2162C46.8984 76.8322 33.5544 88.6402 15.5064 88.6402C10.6104 88.6402 6.81839 87.3922 4.13039 84.8962C1.44239 82.4962 0.0983887 79.5682 0.0983887 76.1122C0.0983887 72.5602 1.34639 68.5762 3.84239 64.1602C3.84239 62.7202 3.98639 61.2802 4.27439 59.8402C5.81039 50.5282 11.1864 42.2242 20.4024 34.9282ZM46.7544 37.9522C41.7624 39.1042 37.0104 39.6802 32.4984 39.6802C27.9864 39.6802 24.3864 38.5282 21.6984 36.2242C12.8664 43.1362 7.73039 51.1042 6.29039 60.1282L6.14639 60.8482C13.1544 52.9762 23.0424 48.3682 35.8104 47.0242C36.3864 46.9282 36.6744 47.1682 36.6744 47.7442C36.5784 48.3202 36.2424 48.7042 35.6664 48.8962C28.7544 49.9522 22.7064 52.1602 17.5224 55.5202C12.4344 58.8802 8.54639 62.7202 5.85839 67.0402C6.14639 70.8802 7.20239 73.8562 9.02639 75.9682C11.1384 78.4642 13.9224 79.7122 17.3784 79.7122C20.8344 79.7122 24.1464 78.5122 27.3144 76.1122C30.5784 73.6162 33.4584 70.0162 35.9544 65.3122C40.0824 57.4402 43.3464 49.3762 45.7464 41.1202L46.7544 37.9522ZM99.0264 21.9682C99.0264 18.0322 96.4344 14.6242 91.2504 11.7442C86.0664 8.76821 79.4904 7.13621 71.5224 6.84821C69.2184 10.1122 66.7224 16.3522 64.0344 25.5682C65.7624 26.3362 66.9624 26.9122 67.6344 27.2962C71.0904 25.6642 74.4504 23.6482 77.7144 21.2482C78.8664 20.3842 79.4424 20.3362 79.4424 21.1042C79.4424 22.2562 76.1784 24.7042 69.6504 28.4482C74.7384 32.0002 77.3784 36.8002 77.5704 42.8482C84.3864 40.2562 89.5704 37.1842 93.1224 33.6322C97.0584 29.7922 99.0264 25.9042 99.0264 21.9682ZM37.5384 14.1922C33.7944 16.3042 30.4344 18.6082 27.4584 21.1042C24.4824 23.5042 22.7544 25.5202 22.2744 27.1522C21.7944 28.6882 21.5544 29.9362 21.5544 30.8962C21.5544 31.8562 21.7464 32.7682 22.1304 33.6322C30.8664 27.2962 40.8984 24.0322 52.2264 23.8402C55.6824 16.2562 58.5624 11.6002 60.8664 9.87221C61.3464 9.58421 61.6344 9.63221 61.7304 10.0162C61.8264 10.4002 61.7784 10.6882 61.5864 10.8802C59.2824 12.6082 56.6904 16.9282 53.8104 23.8402C54.3864 23.8402 55.0584 23.8882 55.8264 23.9842C56.6904 23.9842 57.6984 24.1282 58.8504 24.4162C62.3064 15.9682 65.4264 10.0642 68.2104 6.70421C62.5464 6.80021 56.9784 7.56821 51.5064 9.00821C46.0344 10.3522 41.3784 12.0802 37.5384 14.1922ZM16.9464 80.8642C13.8744 80.8642 11.1864 79.8562 8.88239 77.8402C6.67439 75.8242 5.18639 73.2322 4.41839 70.0642C3.26639 72.3682 2.69039 74.4802 2.69039 76.4002C2.69039 78.3202 3.17039 80.0482 4.13039 81.5842C6.05039 84.9442 9.50639 86.6242 14.4984 86.6242C19.5864 86.6242 24.0024 85.5202 27.7464 83.3122C31.4904 81.2002 34.7544 78.2242 37.5384 74.3842C42.0504 67.9522 45.9384 60.2722 49.2024 51.3442L54.8184 35.5042C53.9544 35.7922 52.0344 36.4162 49.0584 37.3762L47.9064 41.4082C46.1784 47.7442 43.9704 53.5522 41.2824 58.8322C38.5944 64.0162 36.0984 68.0962 33.7944 71.0722C31.5864 74.0482 28.9944 76.4482 26.0184 78.2722C23.1384 80.0002 20.1144 80.8642 16.9464 80.8642ZM76.5624 43.2802C76.3704 37.2322 73.6824 32.5282 68.4984 29.1682C65.6184 30.7042 63.4584 31.8082 62.0184 32.4802C59.5224 41.1202 58.0344 46.1122 57.5544 47.4562C58.5144 47.2642 59.8104 47.0722 61.4424 46.8802C65.8584 46.5922 70.8984 45.3922 76.5624 43.2802ZM23.4264 34.7842C25.1544 36.1282 27.3144 36.8002 29.9064 36.8002C32.4984 36.8002 35.0424 36.6562 37.5384 36.3682C40.0344 36.0802 43.4904 35.4562 47.9064 34.4962C48.7704 31.9042 50.0184 28.7362 51.6504 24.9922C41.2824 25.2802 31.8744 28.5442 23.4264 34.7842ZM53.3784 24.9922C51.8424 29.0242 50.7864 32.0002 50.2104 33.9202L55.9704 32.1922C56.4504 30.7522 57.2664 28.4962 58.4184 25.4242C57.0744 25.2322 56.0664 25.1362 55.3944 25.1362C54.8184 25.0402 54.1464 24.9922 53.3784 24.9922ZM66.4824 27.8722L63.7464 26.7202L62.8824 29.6002L66.4824 27.8722Z" fill="#603813"/>
<path d="M116.371 52.3522C115.123 50.7202 113.827 49.9042 112.483 49.9042C108.643 49.9042 103.987 54.1282 98.5145 62.5762C95.7305 66.8002 93.3305 72.3202 91.3145 79.1362C91.2185 79.9042 90.7865 80.2882 90.0185 80.2882C89.1545 80.2882 88.7225 79.9042 88.7225 79.1362L90.8825 63.8722C91.8425 56.1922 92.3705 51.3922 92.4665 49.4722C92.5625 47.4562 93.8585 46.0642 96.3545 45.2962C97.1225 45.1042 97.8905 45.0082 98.6585 45.0082C99.5225 45.0082 100.003 45.4402 100.099 46.3042C100.099 46.5922 100.051 46.9282 99.9545 47.3122C99.8585 47.6002 99.1385 50.1442 97.7945 54.9442C96.5465 59.6482 95.7305 62.4322 95.3465 63.2962C97.6505 59.2642 100.579 55.3762 104.131 51.6322C107.683 47.7922 110.419 45.8722 112.339 45.8722C112.435 45.8722 112.483 45.8722 112.483 45.8722C115.075 45.8722 116.755 47.4562 117.523 50.6242C117.715 51.3922 117.811 52.0642 117.811 52.6402C117.811 53.1202 117.667 53.3602 117.379 53.3602C117.091 53.4562 116.755 53.1202 116.371 52.3522Z" fill="#603813"/>
<path d="M131.888 35.7922C132.56 35.7922 132.896 36.0322 132.896 36.5122C132.896 36.8962 132.32 37.7602 131.168 39.1042C128.672 42.1762 126.224 42.7522 123.824 40.8322C123.44 40.5442 123.392 40.2562 123.68 39.9682C127.04 37.1842 129.776 35.7922 131.888 35.7922ZM120.8 72.3682C120.8 75.2482 121.664 76.6882 123.392 76.6882C124.352 76.6882 126.704 75.1522 130.448 72.0802C134.288 68.9122 136.352 67.1842 136.64 66.8962C136.928 66.6082 137.168 66.5602 137.36 66.7522C137.552 66.8482 137.648 66.9922 137.648 67.1842C137.648 67.2802 137.6 67.4242 137.504 67.6162C136.064 70.0162 133.04 72.8962 128.432 76.2562C125.36 78.7522 122.768 80.0002 120.656 80.0002C117.392 80.0002 115.76 77.2162 115.76 71.6482C115.76 70.5922 115.856 69.1042 116.048 67.1842C116.24 65.1682 117.776 59.0722 120.656 48.8962C120.848 48.1282 121.904 47.7442 123.824 47.7442C125.84 47.7442 126.848 48.3202 126.848 49.4722C126.848 50.5282 126.464 51.9682 125.696 53.7922C125.024 55.5202 124.208 56.4802 123.248 56.6722C122.768 56.7682 122.24 59.1682 121.664 63.8722C121.088 68.5762 120.8 71.4082 120.8 72.3682Z" fill="#603813"/>
<path d="M141.19 82.5922C136.582 82.5922 134.278 79.3282 134.278 72.8002C134.278 70.7842 134.566 68.5762 135.142 66.1762C137.062 58.8802 140.566 52.4962 145.654 47.0242C148.054 44.5282 150.262 43.2802 152.278 43.2802C154.39 43.2802 156.31 44.0482 158.038 45.5842C158.518 45.9682 158.95 46.7362 159.334 47.8882C159.814 48.9442 159.91 49.8082 159.622 50.4802C159.334 51.1522 158.902 50.8642 158.326 49.6162C157.75 48.5602 156.694 48.0322 155.158 48.0322C152.47 48.0322 149.734 50.2402 146.95 54.6562C141.862 62.8162 139.318 69.2962 139.318 74.0962C139.318 75.6322 139.654 76.9762 140.326 78.1282C141.094 79.2802 141.958 79.8562 142.918 79.8562C148.774 79.8562 154.918 76.1602 161.35 68.7682C162.022 68.0962 162.358 68.0482 162.358 68.6242C162.358 69.2002 161.782 70.1602 160.63 71.5042C159.574 72.8482 157.558 74.6242 154.582 76.8322C149.686 80.6722 145.222 82.5922 141.19 82.5922Z" fill="#603813"/>
<path d="M188.454 46.1602C190.278 47.6002 191.19 49.4242 191.19 51.6322C191.19 53.8402 190.134 56.3842 188.022 59.2642H190.902C192.342 59.2642 192.294 59.5522 190.758 60.1282C189.222 60.6082 187.782 60.9922 186.438 61.2802C185.478 62.4322 184.374 63.4882 183.126 64.4482C181.878 65.3122 181.302 65.3602 181.398 64.5922L182.118 63.2962L183.558 61.7122C175.782 62.2882 171.654 62.6242 171.174 62.7202C170.118 65.3122 169.59 68.0962 169.59 71.0722C169.59 74.0482 170.31 76.1602 171.75 77.4082C173.19 78.5602 174.438 79.1362 175.494 79.1362C182.118 79.1362 188.838 75.5362 195.654 68.3362C196.518 67.4722 196.95 67.5202 196.95 68.4802C196.95 68.7682 196.662 69.2482 196.086 69.9202C194.166 72.2242 191.478 74.4322 188.022 76.5442C182.454 80.0962 177.942 81.8722 174.486 81.8722C171.126 81.8722 168.438 80.9602 166.422 79.1362C164.406 77.2162 163.398 74.3362 163.398 70.4962C163.398 69.1522 163.59 67.3762 163.974 65.1682C164.454 62.9602 165.558 60.1282 167.286 56.6722C169.11 53.1202 171.27 50.1442 173.766 47.7442C176.358 45.2482 178.854 44.0002 181.254 44.0002C183.75 44.0002 186.15 44.7202 188.454 46.1602ZM184.998 59.4082C186.63 56.0482 187.446 53.3602 187.446 51.3442C187.446 49.3282 186.582 48.3202 184.854 48.3202C183.126 48.3202 181.014 49.5202 178.518 51.9202C176.022 54.3202 174.054 56.9122 172.614 59.6962C179.718 59.5042 183.846 59.4082 184.998 59.4082Z" fill="#603813"/>
<path d="M231.827 53.9362C229.619 61.8082 228.515 67.4722 228.515 70.9282C228.515 74.3842 228.947 76.4482 229.811 77.1202C230.771 77.7922 231.923 78.1282 233.267 78.1282C234.611 78.1282 236.867 77.4082 240.035 75.9682C243.203 74.5282 245.651 72.7042 247.379 70.4962C249.107 68.2882 249.923 67.7602 249.827 68.9122C249.731 69.8722 249.443 70.7362 248.963 71.5042C247.235 73.7122 244.403 75.8242 240.467 77.8402C236.531 79.7602 233.411 80.7202 231.107 80.7202C230.531 80.7202 230.003 80.6722 229.523 80.5762C225.779 79.7122 223.907 76.3042 223.907 70.3522C223.907 67.5682 224.339 64.1602 225.203 60.1282C224.243 60.3202 223.763 60.0802 223.763 59.4082C223.763 58.5442 224.627 57.2002 226.355 55.3762C232.115 31.3762 239.699 15.4402 249.107 7.56821C251.219 5.84021 253.139 4.97621 254.867 4.97621C258.611 4.97621 260.483 6.70421 260.483 10.1602C260.291 17.8402 256.739 25.9522 249.827 34.4962C246.275 38.8162 243.395 42.1282 241.187 44.4322C239.075 46.7362 235.955 49.9042 231.827 53.9362ZM258.323 10.7362C258.323 8.33621 257.699 7.13621 256.451 7.13621C252.515 7.13621 247.235 14.4322 240.611 29.0242C236.771 37.7602 233.987 45.0082 232.259 50.7682C237.539 45.7762 243.203 39.1522 249.251 30.8962C255.299 22.6402 258.323 15.9202 258.323 10.7362Z" fill="#603813"/>
<path d="M263.653 35.7922C264.325 35.7922 264.661 36.0322 264.661 36.5122C264.661 36.8962 264.085 37.7602 262.933 39.1042C260.437 42.1762 257.989 42.7522 255.589 40.8322C255.205 40.5442 255.157 40.2562 255.445 39.9682C258.805 37.1842 261.541 35.7922 263.653 35.7922ZM252.565 72.3682C252.565 75.2482 253.429 76.6882 255.157 76.6882C256.117 76.6882 258.469 75.1522 262.213 72.0802C266.053 68.9122 268.117 67.1842 268.405 66.8962C268.693 66.6082 268.933 66.5602 269.125 66.7522C269.317 66.8482 269.413 66.9922 269.413 67.1842C269.413 67.2802 269.365 67.4242 269.269 67.6162C267.829 70.0162 264.805 72.8962 260.197 76.2562C257.125 78.7522 254.533 80.0002 252.421 80.0002C249.157 80.0002 247.525 77.2162 247.525 71.6482C247.525 70.5922 247.621 69.1042 247.813 67.1842C248.005 65.1682 249.541 59.0722 252.421 48.8962C252.613 48.1282 253.669 47.7442 255.589 47.7442C257.605 47.7442 258.613 48.3202 258.613 49.4722C258.613 50.5282 258.229 51.9682 257.461 53.7922C256.789 55.5202 255.973 56.4802 255.013 56.6722C254.533 56.7682 254.005 59.1682 253.429 63.8722C252.853 68.5762 252.565 71.4082 252.565 72.3682Z" fill="#603813"/>
<path d="M266.332 84.0322C262.876 84.0322 261.148 83.1682 261.148 81.4402C261.148 80.8642 261.58 80.2882 262.444 79.7122C263.212 79.0402 264.364 78.6562 265.9 78.5602C275.212 77.7922 280.204 77.3122 280.876 77.1202C281.548 76.0642 281.884 74.8642 281.884 73.5202C281.884 72.0802 280.588 70.2562 277.996 68.0482C275.404 65.8402 273.532 63.5362 272.38 61.1362C271.228 58.7362 270.652 56.8162 270.652 55.3762C270.652 53.9362 271.036 52.5922 271.804 51.3442C275.164 45.7762 279.1 42.9922 283.612 42.9922C287.452 42.9922 289.948 44.2882 291.1 46.8802C291.388 47.6482 291.388 48.3202 291.1 48.8962C290.908 49.4722 290.668 49.7122 290.38 49.6162C290.092 49.5202 289.9 49.2322 289.804 48.7522C289.612 47.0242 288.796 46.1602 287.356 46.1602C286.588 46.1602 285.676 46.4002 284.62 46.8802C280.684 48.4162 277.948 51.1042 276.412 54.9442C276.028 55.9042 275.836 56.9122 275.836 57.9682C275.836 59.0242 276.172 60.3202 276.844 61.8562C277.516 63.3922 278.62 64.8322 280.156 66.1762C282.844 68.4802 284.188 70.8802 284.188 73.3762C284.188 74.3362 283.948 75.2962 283.468 76.2562C288.364 73.9522 292.156 71.8402 294.844 69.9202L295.132 70.0642C295.036 71.3122 292.636 73.1842 287.932 75.6802C286.396 76.5442 285.052 77.3122 283.9 77.9842L282.316 78.9922C281.356 80.8162 278.236 82.2082 272.956 83.1682C270.268 83.7442 268.06 84.0322 266.332 84.0322Z" fill="#603813"/>
<path d="M313.743 45.1522C320.751 45.1522 324.255 45.5842 324.255 46.4482C324.255 46.6402 323.103 46.8802 320.799 47.1682C313.407 47.9362 309.375 48.4162 308.703 48.6082C303.999 60.1282 301.647 68.3362 301.647 73.2322C301.647 74.7682 301.935 75.9202 302.511 76.6882C303.183 77.3602 303.903 77.6482 304.671 77.5522C305.535 77.4562 306.207 77.3602 306.687 77.2642C307.263 77.1682 308.079 76.8802 309.135 76.4002C310.287 75.8242 311.199 75.3922 311.871 75.1042C313.503 74.3362 316.623 72.1762 321.231 68.6242C322.863 67.4722 323.727 67.2322 323.823 67.9042C323.823 69.1522 321.231 71.6002 316.047 75.2482C310.959 78.8962 306.783 80.7202 303.519 80.7202C303.423 80.7202 303.327 80.7202 303.231 80.7202C300.255 80.5282 298.335 79.7122 297.471 78.2722C297.087 77.5042 296.895 76.3522 296.895 74.8162C296.895 73.2802 297.039 71.4562 297.327 69.3442C297.711 67.1362 298.479 64.3522 299.631 60.9922C300.783 57.6322 301.791 54.7522 302.655 52.3522C303.615 49.9522 304.047 48.7522 303.951 48.7522C302.895 48.7522 299.343 49.1842 293.295 50.0482C292.815 50.1442 292.575 49.6642 292.575 48.6082C292.575 47.4562 293.055 46.6882 294.015 46.3042C295.071 45.9202 298.719 45.5842 304.959 45.2962C307.935 35.1202 310.143 28.5442 311.583 25.5682C311.871 24.8962 312.303 24.5602 312.879 24.5602C313.455 24.5602 314.271 25.2322 315.327 26.5762C316.383 27.9202 316.911 28.9282 316.911 29.6002C316.911 30.2722 316.815 30.8002 316.623 31.1842L309.567 45.2962C310.911 45.2002 312.303 45.1522 313.743 45.1522Z" fill="#603813"/>
</svg>
