<svg width="341" height="9" viewBox="0 0 341 9" fill="none" xmlns="http://www.w3.org/2000/svg">
<line x1="150.412" y1="5" x2="0.412415" y2="5.00001" stroke="#D7BCB6"/>
<path d="M176.79 8.15575C179.276 7.55751 179.789 5.35149 179.735 4.32325C181.394 5.79549 182.679 6.05254 183.38 6.05254C184.081 6.05254 184.619 5.32811 184.619 4.69716C184.619 4.06621 184.549 4.32325 182.959 4.32325C181.37 4.32325 179.921 3.10807 178.66 1.70593C177.398 0.303786 176.042 0 175.107 0C174.173 0 172.514 0.373902 171.368 2.00973C170.223 3.64555 169.803 5.81886 169.803 6.9873C169.803 8.15575 170.06 8.95029 170.41 8.99703C170.761 9.04376 170.504 8.52965 170.41 8.15575C170.317 7.78186 170.013 4.88411 171.368 2.85102C172.724 0.817921 173.729 0.934766 175.107 0.934766C176.486 0.934766 178.075 2.19669 178.075 3.94935C178.075 5.70202 176.626 6.37972 175.692 6.37972C174.757 6.37972 174.29 5.58518 174.29 4.69716C174.29 3.80914 175.107 3.29502 175.458 3.10807C175.809 2.92112 175.645 2.80428 175.107 2.64069C173.425 2.43037 172.514 3.99609 172.514 5.1178C172.514 6.2395 173.682 8.90356 176.79 8.15575Z" fill="#D7BCB6"/>
<path d="M164.241 8.15575C161.755 7.55751 161.242 5.35149 161.297 4.32325C159.637 5.79549 158.352 6.05254 157.651 6.05254C156.95 6.05254 156.412 5.32811 156.412 4.69716C156.412 4.06621 156.483 4.32325 158.072 4.32325C159.661 4.32325 161.11 3.10807 162.371 1.70593C163.633 0.303786 164.989 0 165.924 0C166.858 0 168.518 0.373902 169.663 2.00973C170.808 3.64555 171.228 5.81886 171.228 6.9873C171.228 8.15575 170.971 8.95029 170.621 8.99703C170.27 9.04376 170.527 8.52965 170.621 8.15575C170.714 7.78186 171.018 4.88411 169.663 2.85102C168.307 0.817921 167.302 0.934766 165.924 0.934766C164.545 0.934766 162.956 2.19669 162.956 3.94935C162.956 5.70202 164.405 6.37972 165.339 6.37972C166.274 6.37972 166.741 5.58518 166.741 4.69716C166.741 3.80914 165.924 3.29502 165.573 3.10807C165.222 2.92112 165.386 2.80428 165.924 2.64069C167.606 2.43037 168.518 3.99609 168.518 5.1178C168.518 6.2395 167.349 8.90356 164.241 8.15575Z" fill="#D7BCB6"/>
<line x1="340.619" y1="5" x2="190.619" y2="5.00001" stroke="#D7BCB6"/>
</svg>
